<svg width="43" height="43" viewBox="0 0 43 43" fill="none" xmlns="http://www.w3.org/2000/svg">
<path d="M37.98 21.5C37.9775 20.7472 37.9241 19.9955 37.82 19.25C37.794 19.0842 37.8267 18.9145 37.9125 18.7702C37.9983 18.626 38.1319 18.5162 38.29 18.46L41.4 17.35L39.48 11.96L36.36 13.08C36.2017 13.1331 36.0299 13.1302 35.8734 13.072C35.7169 13.0138 35.5851 12.9037 35.5 12.76C34.6713 11.421 33.6618 10.2029 32.5 9.14C32.3749 9.0304 32.2916 8.88086 32.2642 8.71679C32.2369 8.55273 32.2672 8.38425 32.35 8.24L34.01 5.4L29.07 2.5L27.41 5.38C27.3221 5.52053 27.1895 5.62747 27.0336 5.68368C26.8777 5.73989 26.7074 5.74211 26.55 5.69C25.0546 5.1909 23.4955 4.90805 21.92 4.85C21.7526 4.84395 21.5923 4.78132 21.4651 4.67233C21.338 4.56335 21.2516 4.41446 21.22 4.25L20.66 1L15.02 2L15.59 5.26C15.6192 5.42611 15.5891 5.59718 15.505 5.74338C15.4209 5.88959 15.2882 6.00164 15.13 6.06C13.6667 6.63991 12.293 7.42439 11.05 8.39C10.9223 8.49658 10.7613 8.55495 10.595 8.55495C10.4287 8.55495 10.2677 8.49658 10.14 8.39L7.61 6.24L3.93 10.61L6.46 12.74C6.58753 12.85 6.67313 13.0006 6.70229 13.1665C6.73145 13.3323 6.70238 13.5031 6.62 13.65C5.87737 15.0364 5.3353 16.5212 5.01 18.06C4.97811 18.2234 4.8913 18.3711 4.76398 18.4784C4.63666 18.5857 4.47647 18.6462 4.31 18.65H1V24.36H4.31C4.477 24.3619 4.63814 24.4218 4.76584 24.5294C4.89354 24.6371 4.97986 24.7857 5.01 24.95C5.32404 26.4206 5.8318 27.843 6.52 29.18C6.59862 29.3269 6.62463 29.4963 6.59371 29.66C6.56278 29.8237 6.47679 29.9719 6.35 30.08L3.79 32.17L7.41 36.6L9.97 34.5C10.0993 34.3927 10.262 34.3339 10.43 34.3339C10.598 34.3339 10.7607 34.3927 10.89 34.5C12.1021 35.484 13.4492 36.2889 14.89 36.89C15.0434 36.9535 15.1705 37.0673 15.2505 37.2127C15.3305 37.3582 15.3585 37.5265 15.33 37.69L14.72 40.95L20.35 41.95L21.06 38.12H21.26C22.958 38.1138 24.6448 37.8439 26.26 37.32C26.4195 37.2697 26.5914 37.2749 26.7476 37.3349C26.9038 37.3948 27.0351 37.5059 27.12 37.65L28.75 40.53L33.75 37.72L32.2 34.91C32.1176 34.7631 32.0886 34.5923 32.1177 34.4265C32.1469 34.2606 32.2325 34.11 32.36 34C33.5243 32.9546 34.5344 31.7492 35.36 30.42C35.4471 30.276 35.5812 30.1664 35.7397 30.1099C35.8983 30.0534 36.0715 30.0535 36.23 30.11L39.33 31.27L41.33 25.91L38.23 24.76C38.0729 24.7 37.9414 24.5877 37.8576 24.4419C37.7737 24.2961 37.7428 24.1259 37.77 23.96C37.9012 23.1464 37.9714 22.3241 37.98 21.5V21.5Z" stroke="white" stroke-width="2" stroke-linecap="round" stroke-linejoin="round"/>
</svg>
