<svg width="39" height="39" viewBox="0 0 39 39" fill="none" xmlns="http://www.w3.org/2000/svg">
<path d="M28.842 28.0381L28.962 23.9681C29.3134 23.7211 29.6475 23.4505 29.962 23.1581C37.552 15.4681 39.242 3.87811 37.142 1.80811C35.042 -0.261892 23.472 1.46811 15.772 9.05811C15.4824 9.37504 15.2119 9.70897 14.962 10.0581L10.892 10.1781C10.1935 10.1898 9.51015 10.3844 8.91012 10.7423C8.31009 11.1002 7.81427 11.609 7.47203 12.2181L1.10203 23.8781C1.01225 24.0613 0.980657 24.2676 1.01148 24.4692C1.0423 24.6709 1.13407 24.8583 1.27447 25.0063C1.41487 25.1544 1.59718 25.2559 1.79693 25.2973C1.99669 25.3387 2.20435 25.3181 2.39203 25.2381L10.972 21.1081C10.802 22.3423 10.802 23.5939 10.972 24.8281L6.61203 30.4681C6.50545 30.5958 6.44707 30.7568 6.44707 30.9231C6.44707 31.0894 6.50545 31.2504 6.61203 31.3781L7.08203 31.8181L7.52203 32.2881C7.65128 32.3955 7.81401 32.4542 7.98203 32.4542C8.15004 32.4542 8.31277 32.3955 8.44203 32.2881L14.072 27.8981C15.3062 28.0681 16.5579 28.0681 17.792 27.8981L13.772 36.5681C13.7049 36.7488 13.6915 36.9451 13.7334 37.1332C13.7752 37.3214 13.8706 37.4935 14.0079 37.6287C14.1453 37.7639 14.3188 37.8566 14.5076 37.8955C14.6964 37.9345 14.8924 37.918 15.072 37.8481L26.762 31.4681C27.3728 31.1344 27.886 30.647 28.2508 30.0543C28.6156 29.4615 28.8194 28.7838 28.842 28.0881V28.0381ZM33.472 5.52811C33.7592 5.81658 33.9544 6.18365 34.0331 6.58299C34.1119 6.98233 34.0705 7.39604 33.9143 7.7719C33.7581 8.14777 33.4941 8.46893 33.1555 8.69487C32.817 8.9208 32.4191 9.04138 32.012 9.04138C31.605 9.04138 31.2071 8.9208 30.8685 8.69487C30.53 8.46893 30.2659 8.14777 30.1097 7.7719C29.9535 7.39604 29.9122 6.98233 29.9909 6.58299C30.0696 6.18365 30.2649 5.81658 30.552 5.52811C30.7434 5.33581 30.9709 5.18322 31.2215 5.0791C31.472 4.97498 31.7407 4.92138 32.012 4.92138C32.2833 4.92138 32.552 4.97498 32.8025 5.0791C33.0531 5.18322 33.2806 5.33581 33.472 5.52811V5.52811ZM24.372 14.6281C23.8917 14.1467 23.5647 13.5338 23.4326 12.8667C23.3004 12.1996 23.369 11.5083 23.6296 10.8801C23.8901 10.252 24.3311 9.71513 24.8966 9.33746C25.4622 8.95979 26.127 8.75822 26.807 8.75822C27.4871 8.75822 28.1519 8.95979 28.7174 9.33746C29.283 9.71513 29.7239 10.252 29.9845 10.8801C30.2451 11.5083 30.3136 12.1996 30.1815 12.8667C30.0493 13.5338 29.7224 14.1467 29.242 14.6281C28.9225 14.9483 28.543 15.2023 28.1251 15.3757C27.7073 15.549 27.2594 15.6382 26.807 15.6382C26.3547 15.6382 25.9068 15.549 25.4889 15.3757C25.0711 15.2023 24.6916 14.9483 24.372 14.6281V14.6281Z" stroke="white" stroke-width="2" stroke-linecap="round" stroke-linejoin="round"/>
</svg>
