<svg width="41" height="42" viewBox="0 0 41 42" fill="none" xmlns="http://www.w3.org/2000/svg">
<path d="M20.2941 15.5001V18.2301M16.4841 1.00008C16.2444 0.996998 16.0115 1.08012 15.828 1.2343C15.6444 1.38848 15.5224 1.60346 15.4841 1.84008L14.7341 7.14008C13.527 7.65443 12.3938 8.32699 11.3641 9.14008L6.36405 7.14008C6.14148 7.05292 5.89505 7.04837 5.66941 7.12725C5.44377 7.20614 5.25384 7.36323 5.13405 7.57008L1.13405 14.5001C1.01458 14.7069 0.973108 14.9497 1.01713 15.1845C1.06115 15.4193 1.18776 15.6306 1.37405 15.7801L5.58405 19.0901C5.51738 19.7246 5.484 20.3621 5.48405 21.0001C5.48475 21.6688 5.52817 22.3369 5.61405 23.0001L1.40405 26.2601C1.21776 26.4096 1.09115 26.6209 1.04713 26.8557C1.00311 27.0904 1.04458 27.3332 1.16405 27.5401L5.16405 34.4701C5.28385 34.6769 5.47377 34.834 5.69941 34.9129C5.92505 34.9918 6.17148 34.9872 6.39405 34.9001L11.3941 32.9001C12.4258 33.7102 13.5587 34.3825 14.7641 34.9001L15.5141 40.2001C15.5598 40.4243 15.6811 40.626 15.8576 40.7716C16.0341 40.9172 16.2552 40.9978 16.4841 41.0001H24.4841C24.7237 41.0032 24.9566 40.9201 25.1401 40.7659C25.3237 40.6117 25.4457 40.3967 25.4841 40.1601L26.2441 34.8601C27.4511 34.3457 28.5843 33.6732 29.6141 32.8601L34.6141 34.8601C34.8354 34.9445 35.0795 34.9477 35.3029 34.8689C35.5264 34.7902 35.7146 34.6347 35.8341 34.4301L39.8341 27.5001C39.9535 27.2932 39.995 27.0504 39.951 26.8157C39.907 26.5809 39.7803 26.3696 39.5941 26.2201L35.3341 23.0001C35.4266 22.3373 35.4767 21.6693 35.4841 21.0001C35.4779 20.3478 35.4312 19.6965 35.3441 19.0501L39.5741 15.7401C39.762 15.5919 39.8906 15.3813 39.9364 15.1464C39.9823 14.9116 39.9424 14.6681 39.8241 14.4601L35.8241 7.53008C35.7046 7.32551 35.5164 7.17 35.2929 7.09126C35.0695 7.01251 34.8254 7.01564 34.6041 7.10008L29.6041 9.10008C28.5687 8.28987 27.4326 7.61758 26.2241 7.10008L25.4841 1.84008C25.4457 1.60346 25.3237 1.38848 25.1401 1.2343C24.9566 1.08012 24.7237 0.996998 24.4841 1.00008H16.4841ZM23.4841 26.4901H28.9741H23.4841ZM23.4841 15.5001H28.9741H23.4841ZM26.2341 15.5001V26.4901V15.5001ZM13.3941 26.4901H18.8841H13.3941ZM13.3941 15.5001H18.8841H13.3941ZM16.1441 15.5001V26.4901V15.5001ZM11.9941 15.5001H20.2941H11.9941ZM16.1441 26.5001V15.5001V26.5001ZM11.9941 15.5001V18.2301V15.5001Z" stroke="white" stroke-width="2" stroke-linecap="round" stroke-linejoin="round"/>
</svg>
